<svg width="33" height="32" viewBox="0 0 33 32" fill="none" xmlns="http://www.w3.org/2000/svg">
<path d="M29.881 16C29.881 7.856 23.8535 1.1168 16.0134 0V2.144C7.86256 2.144 1.11773 8.1664 0 16H2.14579C2.14579 24.144 8.17322 30.8832 16.0134 32V29.856C24.1642 29.856 30.909 23.8336 32.0267 16H29.881Z" fill="#FC6200"/>
<path d="M21.0149 18.8869C20.0157 20.6117 18.1485 21.7733 16.0091 21.7733C12.8192 21.7733 10.2315 19.1877 10.2315 16.0005C10.2315 12.8133 12.8192 10.2277 16.0091 10.2277C18.1485 10.2277 20.0157 11.3861 21.0149 13.1141L24.1407 11.3093C22.5906 8.2501 19.5737 6.0645 16.0123 5.6709V6.7621C10.6606 6.7621 6.25056 10.8005 5.67728 16.0005H6.76939C6.76939 21.3477 10.8144 25.7541 16.0155 26.3269V25.2357C19.5096 25.2357 22.597 23.5173 24.4834 20.8805L21.0213 18.8837L21.0149 18.8869Z" fill="white"/>
</svg>
