<svg width="426" height="72" viewBox="0 0 426 72" fill="none" xmlns="http://www.w3.org/2000/svg">
<g clip-path="url(#clip0_52_1797)">
<path d="M-386 -431L-282.874 -355.294L-275.874 -367.419L-172.75 -291.714L-165.75 -303.838L-62.6238 -228.133L-55.6238 -240.257L47.5022 -164.552L54.5022 -176.676L157.627 -100.971L164.627 -113.096L267.752 -37.39L274.752 -49.5144L377.878 26.1912L384.878 14.0669L488.003 89.7716L495.003 77.6472L598.129 153.353L605.129 141.228L708.255 216.934" stroke="#EB5200" stroke-width="2"/>
<path d="M-111 688.255L-35.2944 585.129L-47.4188 578.129L28.2859 475.005L16.1616 468.005L91.8672 364.879L79.7428 357.879L155.448 254.753L143.324 247.753L219.029 144.628L206.904 137.628L282.61 34.5024L270.486 27.5024L346.191 -75.6236L334.067 -82.6236L409.772 -185.748L397.647 -192.748L473.353 -295.874L461.228 -302.874L536.934 -406" stroke="#EB5200" stroke-width="2"/>
<path d="M-494.332 -518.58L-406.61 -425.461L-397.532 -436.118L-309.811 -343L-300.733 -353.657L-213.011 -260.538L-203.932 -271.195L-116.211 -178.076L-107.132 -188.733L-19.4119 -95.6148L-10.3332 -106.272L77.3884 -13.1527L86.4671 -23.81L174.189 69.3094L183.267 58.6521L270.988 151.77L280.066 141.113L367.788 234.232L376.867 223.575L464.588 316.694" stroke="#EB5200" stroke-width="2"/>
<path d="M-512 570.171L-412.183 490.153L-422.083 480.253L-322.267 400.237L-332.166 390.337L-232.349 310.319L-242.249 300.42L-142.432 220.402L-152.331 210.502L-52.5158 130.486L-62.4153 120.586L37.4017 40.5682L27.5022 30.6687L127.319 -49.3492L117.42 -59.2487L217.235 -139.265L207.336 -149.165L307.153 -229.183L297.253 -239.082L397.07 -319.1" stroke="#EB5200" stroke-width="2"/>
</g>
<defs>
<clipPath id="clip0_52_1797">
<rect width="426" height="72" rx="12" fill="white"/>
</clipPath>
</defs>
</svg>
