<svg width="346" height="34" viewBox="0 0 346 34" fill="none" xmlns="http://www.w3.org/2000/svg">
<g clip-path="url(#clip0_2001_1422)">
<path d="M-111 688.254L-35.2944 585.128L-47.4188 578.128L28.2859 475.004L16.1616 468.004L91.8672 364.878L79.7428 357.878L155.448 254.752L143.324 247.752L219.029 144.627L206.904 137.627L282.61 34.5014L270.486 27.5014L346.191 -75.6246L334.067 -82.6246L409.772 -185.749L397.647 -192.749L473.353 -295.875L461.228 -302.875L536.934 -406.001" stroke="#EB5200" stroke-width="2"/>
<path d="M-494.328 -518.578L-406.606 -425.459L-397.528 -436.116L-309.808 -342.998L-300.729 -353.655L-213.007 -260.536L-203.929 -271.193L-116.207 -178.074L-107.128 -188.731L-19.408 -95.6129L-10.3293 -106.27L77.3924 -13.1508L86.471 -23.8081L174.193 69.3112L183.271 58.654L270.992 151.772L280.07 141.115L367.792 234.234L376.871 223.577L464.592 316.696" stroke="#EB5200" stroke-width="2"/>
<path d="M-512 570.172L-412.183 490.154L-422.083 480.254L-322.267 400.238L-332.166 390.338L-232.349 310.32L-242.249 300.421L-142.432 220.403L-152.331 210.503L-52.5158 130.487L-62.4153 120.587L37.4017 40.5691L27.5022 30.6696L127.319 -49.3484L117.42 -59.2479L217.235 -139.264L207.336 -149.164L307.153 -229.182L297.253 -239.081L397.07 -319.099" stroke="#EB5200" stroke-width="2"/>
</g>
<defs>
<clipPath id="clip0_2001_1422">
<rect width="346" height="59" fill="white"/>
</clipPath>
</defs>
</svg>
