<svg width="17" height="18" viewBox="0 0 17 18" fill="none" xmlns="http://www.w3.org/2000/svg">
<path d="M16.25 8.12474V14.3747C16.25 15.2035 15.9208 15.9984 15.3347 16.5845C14.7487 17.1705 13.9538 17.4997 13.125 17.4997H8.75C8.58424 17.4997 8.42527 17.4339 8.30806 17.3167C8.19085 17.1995 8.125 17.0405 8.125 16.8747C8.125 16.709 8.19085 16.55 8.30806 16.4328C8.42527 16.3156 8.58424 16.2497 8.75 16.2497H13.125C13.6223 16.2497 14.0992 16.0522 14.4508 15.7006C14.8025 15.3489 15 14.872 15 14.3747H13.125C12.6277 14.3747 12.1508 14.1772 11.7992 13.8256C11.4475 13.4739 11.25 12.997 11.25 12.4997V9.37474C11.25 8.87746 11.4475 8.40055 11.7992 8.04892C12.1508 7.69729 12.6277 7.49974 13.125 7.49974H14.9727C14.8544 6.20048 14.3689 4.96168 13.5728 3.92806C12.7768 2.89443 11.703 2.10865 10.477 1.6625C9.25106 1.21635 7.92344 1.12824 6.64925 1.40847C5.37507 1.6887 4.20692 2.32569 3.28125 3.24505C2.1302 4.38092 1.42025 5.88887 1.27813 7.49974H3.125C3.62228 7.49974 4.0992 7.69729 4.45083 8.04892C4.80246 8.40055 5 8.87746 5 9.37474V12.4997C5 12.997 4.80246 13.4739 4.45083 13.8256C4.0992 14.1772 3.62228 14.3747 3.125 14.3747H1.875C1.37772 14.3747 0.900806 14.1772 0.549175 13.8256C0.197544 13.4739 0 12.997 0 12.4997V8.12474C0.0017523 6.51529 0.480956 4.94253 1.37696 3.60555C2.27296 2.26856 3.54547 1.22745 5.03343 0.613999C6.52139 0.000547022 8.1579 -0.157669 9.73582 0.159376C11.3137 0.476421 12.7621 1.25447 13.8977 2.39505C14.6474 3.14842 15.2411 4.04231 15.6447 5.02552C16.0484 6.00872 16.2541 7.06191 16.25 8.12474Z" fill="#D8D8D8"/>
</svg>
