<svg width="17" height="17" viewBox="0 0 17 17" fill="none" xmlns="http://www.w3.org/2000/svg">
<path d="M11.5625 7.5C11.5625 8.17987 11.3609 8.84448 10.9832 9.40977C10.6055 9.97507 10.0686 10.4157 9.44048 10.6758C8.81236 10.936 8.12119 11.0041 7.45438 10.8714C6.78757 10.7388 6.17507 10.4114 5.69432 9.93068C5.21358 9.44994 4.88619 8.83743 4.75355 8.17062C4.62092 7.50381 4.68899 6.81265 4.94917 6.18453C5.20934 5.5564 5.64994 5.01954 6.21523 4.64182C6.78052 4.26411 7.44513 4.0625 8.125 4.0625C9.03637 4.06353 9.91011 4.42603 10.5545 5.07046C11.199 5.71489 11.5615 6.58864 11.5625 7.5ZM16.25 8.125C16.25 9.73197 15.7735 11.3029 14.8807 12.639C13.9879 13.9752 12.719 15.0166 11.2343 15.6315C9.74966 16.2465 8.11599 16.4074 6.5399 16.0939C4.9638 15.7804 3.51606 15.0065 2.37976 13.8702C1.24346 12.7339 0.469628 11.2862 0.156123 9.71011C-0.157382 8.13401 0.00352044 6.50035 0.618482 5.0157C1.23344 3.53105 2.27485 2.2621 3.611 1.36931C4.94714 0.476523 6.51803 0 8.125 0C10.2792 0.00227486 12.3445 0.85903 13.8677 2.38227C15.391 3.90551 16.2477 5.97081 16.25 8.125ZM15 8.125C14.999 7.19964 14.8114 6.28398 14.4484 5.43278C14.0854 4.58158 13.5545 3.81234 12.8874 3.17104C12.2202 2.52975 11.4306 2.02957 10.5658 1.70044C9.70094 1.3713 8.77859 1.21996 7.85391 1.25547C4.17422 1.39766 1.23985 4.4625 1.25 8.14453C1.25353 9.82072 1.87174 11.4374 2.9875 12.6883C3.4419 12.0292 4.0191 11.464 4.6875 11.0234C4.74449 10.9858 4.81224 10.9679 4.88039 10.9724C4.94853 10.9769 5.01332 11.0036 5.06485 11.0484C5.91421 11.7831 6.99966 12.1874 8.12266 12.1874C9.24566 12.1874 10.3311 11.7831 11.1805 11.0484C11.232 11.0036 11.2968 10.9769 11.3649 10.9724C11.4331 10.9679 11.5008 10.9858 11.5578 11.0234C12.2271 11.4637 12.8051 12.029 13.2602 12.6883C14.3814 11.4328 15.0008 9.80827 15 8.125Z" fill="#9494A5"/>
</svg>
