<svg width="17" height="17" viewBox="0 0 17 17" fill="none" xmlns="http://www.w3.org/2000/svg">
<path d="M16.25 8.12252C16.25 8.16237 16.25 8.20065 16.25 8.24127C16.2234 9.35534 15.8102 10.6225 14.0625 10.6225C12.2547 10.6225 11.875 9.26315 11.875 8.12252V4.99752C11.8752 4.91184 11.8578 4.82704 11.8238 4.74838C11.7898 4.66972 11.74 4.59889 11.6776 4.54027C11.6151 4.48166 11.5412 4.43652 11.4605 4.40767C11.3798 4.37881 11.2941 4.36685 11.2086 4.37252C11.0476 4.38635 10.8978 4.46072 10.7895 4.58062C10.6812 4.70053 10.6224 4.85706 10.625 5.01862V5.33112C10.0608 4.82544 9.35662 4.50253 8.60526 4.40492C7.85391 4.30732 7.09061 4.4396 6.41592 4.78434C5.74123 5.12908 5.18678 5.6701 4.82562 6.33615C4.46447 7.0022 4.31353 7.76203 4.39271 8.51555C4.47188 9.26906 4.77745 9.98092 5.26916 10.5574C5.76088 11.1338 6.41566 11.5478 7.14728 11.7447C7.87889 11.9417 8.65301 11.9124 9.36767 11.6608C10.0823 11.4092 10.704 10.9469 11.1508 10.335C11.2289 10.4717 11.3172 10.6022 11.4148 10.7256C11.8344 11.2475 12.6336 11.8725 14.0625 11.8725C14.3038 11.8733 14.5448 11.8537 14.7828 11.8139C14.8417 11.8041 14.9021 11.8114 14.9569 11.8348C15.0118 11.8582 15.0588 11.8969 15.0924 11.9462C15.126 11.9955 15.1448 12.0533 15.1466 12.113C15.1483 12.1726 15.133 12.2315 15.1023 12.2827C14.3678 13.5148 13.3203 14.5307 12.0661 15.227C10.812 15.9234 9.39594 16.2755 7.96172 16.2475C3.68203 16.1616 0.171875 12.721 0.00624994 8.44362C-0.0361133 7.36415 0.137216 6.28708 0.516096 5.2754C0.894977 4.26373 1.4718 3.33776 2.21283 2.55169C2.95385 1.76561 3.8442 1.13519 4.83178 0.697329C5.81936 0.259464 6.88434 0.0229373 7.96442 0.00158704C9.04451 -0.0197632 10.118 0.174491 11.1221 0.572986C12.1262 0.971481 13.0408 1.56622 13.8123 2.3224C14.5838 3.07858 15.1968 3.98102 15.6153 4.97693C16.0339 5.97285 16.2497 7.04223 16.25 8.12252ZM5.625 8.12252C5.625 8.61698 5.77162 9.10033 6.04633 9.51145C6.32103 9.92257 6.71148 10.243 7.16829 10.4322C7.62511 10.6214 8.12777 10.671 8.61273 10.5745C9.09768 10.478 9.54314 10.2399 9.89277 9.89029C10.2424 9.54066 10.4805 9.0952 10.577 8.61025C10.6734 8.1253 10.6239 7.62263 10.4347 7.16582C10.2455 6.709 9.92505 6.31855 9.51393 6.04385C9.1028 5.76915 8.61945 5.62252 8.125 5.62252C7.46196 5.62252 6.82607 5.88592 6.35723 6.35476C5.88839 6.8236 5.625 7.45948 5.625 8.12252Z" fill="#9494A5"/>
</svg>
