<svg width="18" height="13" viewBox="0 0 18 13" fill="none" xmlns="http://www.w3.org/2000/svg">
<path d="M16.25 0H1.25C0.918479 0 0.600537 0.131696 0.366116 0.366116C0.131696 0.600537 0 0.918479 0 1.25V11.25C0 11.5815 0.131696 11.8995 0.366116 12.1339C0.600537 12.3683 0.918479 12.5 1.25 12.5H16.25C16.5815 12.5 16.8995 12.3683 17.1339 12.1339C17.3683 11.8995 17.5 11.5815 17.5 11.25V1.25C17.5 0.918479 17.3683 0.600537 17.1339 0.366116C16.8995 0.131696 16.5815 0 16.25 0ZM14.7328 7.39922C14.7811 7.46591 14.8157 7.54145 14.8348 7.62153C14.8539 7.70161 14.857 7.78467 14.844 7.86596C14.831 7.94724 14.8021 8.02517 14.7589 8.09529C14.7158 8.1654 14.6593 8.22634 14.5926 8.27461C14.5259 8.32288 14.4503 8.35754 14.3703 8.37662C14.2902 8.3957 14.2071 8.39881 14.1258 8.38579C14.0446 8.37277 13.9666 8.34386 13.8965 8.30073C13.8264 8.25759 13.7655 8.20106 13.7172 8.13437L13.125 7.31328L12.5289 8.13437C12.4314 8.26905 12.2844 8.35949 12.1203 8.38579C11.9561 8.41209 11.7882 8.3721 11.6535 8.27461C11.5188 8.17712 11.4284 8.03012 11.4021 7.86596C11.3758 7.70179 11.4158 7.5339 11.5133 7.39922L12.1102 6.57891L11.1445 6.26641C11.0665 6.24076 10.9943 6.19999 10.932 6.14644C10.8698 6.09288 10.8187 6.02759 10.7816 5.95428C10.7068 5.80623 10.6939 5.63453 10.7457 5.47695C10.7714 5.39893 10.8121 5.32672 10.8657 5.26445C10.9192 5.20218 10.9845 5.15107 11.0578 5.11404C11.2059 5.03924 11.3776 5.02632 11.5352 5.07812L12.5 5.39062V4.375C12.5 4.20924 12.5658 4.05027 12.6831 3.93306C12.8003 3.81585 12.9592 3.75 13.125 3.75C13.2908 3.75 13.4497 3.81585 13.5669 3.93306C13.6842 4.05027 13.75 4.20924 13.75 4.375V5.39062L14.7148 5.07812C14.7929 5.05248 14.8752 5.04245 14.9571 5.04861C15.039 5.05477 15.1189 5.077 15.1922 5.11404C15.2655 5.15107 15.3308 5.20218 15.3843 5.26445C15.4379 5.32672 15.4786 5.39893 15.5043 5.47695C15.5299 5.55498 15.54 5.63729 15.5338 5.71919C15.5277 5.80109 15.5054 5.88097 15.4684 5.95428C15.4313 6.02759 15.3802 6.09288 15.318 6.14644C15.2557 6.19999 15.1835 6.24076 15.1055 6.26641L14.1398 6.57891L14.7328 7.39922ZM9.10781 7.39922C9.15608 7.46591 9.19075 7.54145 9.20982 7.62153C9.2289 7.70161 9.23202 7.78467 9.21899 7.86596C9.20597 7.94724 9.17707 8.02517 9.13393 8.09529C9.09079 8.1654 9.03427 8.22634 8.96758 8.27461C8.90089 8.32288 8.82535 8.35754 8.74527 8.37662C8.66518 8.3957 8.58213 8.39881 8.50084 8.38579C8.41955 8.37277 8.34162 8.34386 8.27151 8.30073C8.20139 8.25759 8.14046 8.20106 8.09219 8.13437L7.5 7.31328L6.90391 8.13437C6.80642 8.26905 6.65942 8.35949 6.49525 8.38579C6.33109 8.41209 6.1632 8.3721 6.02852 8.27461C5.89384 8.17712 5.8034 8.03012 5.7771 7.86596C5.7508 7.70179 5.79079 7.5339 5.88828 7.39922L6.48516 6.57891L5.51953 6.26641C5.44151 6.24076 5.3693 6.19999 5.30703 6.14644C5.24476 6.09288 5.19365 6.02759 5.15662 5.95428C5.08182 5.80623 5.0689 5.63453 5.1207 5.47695C5.14635 5.39893 5.18712 5.32672 5.24067 5.26445C5.29423 5.20218 5.35952 5.15107 5.43283 5.11404C5.58088 5.03924 5.75258 5.02632 5.91016 5.07812L6.875 5.39062V4.375C6.875 4.20924 6.94085 4.05027 7.05806 3.93306C7.17527 3.81585 7.33424 3.75 7.5 3.75C7.66576 3.75 7.82473 3.81585 7.94194 3.93306C8.05915 4.05027 8.125 4.20924 8.125 4.375V5.39062L9.08984 5.07812C9.16787 5.05248 9.25018 5.04245 9.33208 5.04861C9.41398 5.05477 9.49386 5.077 9.56717 5.11404C9.64048 5.15107 9.70577 5.20218 9.75933 5.26445C9.81288 5.32672 9.85365 5.39893 9.8793 5.47695C9.90495 5.55498 9.91498 5.63729 9.90881 5.71919C9.90265 5.80109 9.88042 5.88097 9.84338 5.95428C9.80635 6.02759 9.75524 6.09288 9.69297 6.14644C9.6307 6.19999 9.55849 6.24076 9.48047 6.26641L8.51484 6.57891L9.10781 7.39922ZM3.75 3.125V9.375C3.75 9.54076 3.68415 9.69973 3.56694 9.81694C3.44973 9.93415 3.29076 10 3.125 10C2.95924 10 2.80027 9.93415 2.68306 9.81694C2.56585 9.69973 2.5 9.54076 2.5 9.375V3.125C2.5 2.95924 2.56585 2.80027 2.68306 2.68306C2.80027 2.56585 2.95924 2.5 3.125 2.5C3.29076 2.5 3.44973 2.56585 3.56694 2.68306C3.68415 2.80027 3.75 2.95924 3.75 3.125Z" fill="#9494A5"/>
</svg>
