<svg width="79" height="79" viewBox="0 0 79 79" fill="none" xmlns="http://www.w3.org/2000/svg">
<path d="M73.5767 39.398C73.5767 19.3444 58.7351 2.74998 39.4301 0V5.27933C19.3602 5.27933 2.75222 20.1087 0 39.398H5.28364C5.28364 59.4515 20.1251 76.0459 39.4301 78.7959V73.5166C59.5001 73.5166 76.1081 58.6872 78.8603 39.398H73.5767Z" fill="#FC6200"/>
<path d="M51.7484 46.5056C49.2879 50.7527 44.6904 53.613 39.4225 53.613C31.568 53.613 25.1961 47.2463 25.1961 39.3982C25.1961 31.5501 31.568 25.1834 39.4225 25.1834C44.6904 25.1834 49.2879 28.0358 51.7484 32.2908L59.4451 27.8467C55.6283 20.3138 48.1997 14.9321 39.4304 13.9629V16.6498C26.2528 16.6498 15.3938 26.5939 13.9822 39.3982H16.6713C16.6713 52.565 26.6314 63.4152 39.4383 64.8256V62.1387C48.0419 62.1387 55.6441 57.9074 60.2889 51.4146L51.7641 46.4977L51.7484 46.5056Z" fill="white"/>
</svg>
